<svg xmlns="http://www.w3.org/2000/svg" viewBox="0 0 544 116"><path fill="#1E0A38" d="M 348.500 6.889 L 335.500 13.733 335.198 18.866 L 334.895 24 338.448 24 C 340.584 24, 342.029 24.498, 342.074 25.250 C 342.242 28.098, 342.491 41, 342.377 41 C 342.310 41, 340.060 40.024, 337.377 38.831 C 331.082 36.031, 319.745 35.828, 312.238 38.380 C 304.981 40.847, 297.048 48.274, 293.699 55.737 C 284.969 75.189, 290.155 100.290, 304.925 110.073 C 314.521 116.430, 328.524 117.692, 338.101 113.065 C 340.452 111.929, 342.454 111, 342.549 111 C 342.645 111, 342.495 112.193, 342.216 113.651 C 341.722 116.236, 341.807 116.286, 345.676 115.668 C 349.702 115.024, 364.576 114.037, 375.500 113.689 L 381.500 113.498 381.796 108.436 L 382.092 103.375 378.296 102.438 L 374.500 101.500 374.241 50.750 L 373.982 0 367.741 0.023 C 361.981 0.044, 360.499 0.573, 348.500 6.889 M 13.750 43.179 L 0 50.356 0 55.118 L 0 59.879 3.750 60.190 L 7.500 60.500 7.500 81 L 7.500 101.500 3.704 102.438 L -0.092 103.375 0.204 108.438 L 0.500 113.500 23.750 113.699 L 47 113.898 47 106.571 C 47 102.531, 47.632 97.732, 48.409 95.872 C 49.184 94.017, 49.582 91.262, 49.292 89.750 C 48.842 87.395, 48.280 87, 45.383 87 C 41.521 87, 38 84.103, 38 80.926 C 38 78.411, 48.624 67, 50.965 67 C 54.334 67, 62 78.063, 62 82.925 C 62 85.221, 59.248 87, 55.697 87 C 53.628 87, 53.141 87.637, 52.450 91.250 C 51.366 96.911, 51.285 111.622, 52.331 112.668 C 52.789 113.126, 62.146 113.646, 73.126 113.824 L 93.088 114.147 92.879 107.324 C 92.764 103.571, 93.238 98.680, 93.931 96.456 C 95.942 90.011, 95.161 87.634, 90.802 86.929 C 82.158 85.532, 81.664 80.742, 89.329 72.636 C 92.484 69.299, 95.508 67, 96.740 67 C 99.235 67, 102.945 71.189, 105.953 77.404 C 108.865 83.417, 108.081 85.669, 102.706 86.731 C 98.635 87.537, 98.491 87.701, 97.614 92.530 C 96.334 99.577, 96.462 109.126, 97.871 111.759 C 99.056 113.973, 99.328 114, 120.453 114 C 132.214 114, 142.548 113.727, 143.418 113.393 C 144.551 112.958, 145 111.448, 145 108.069 C 145 103.450, 144.922 103.334, 141.250 102.426 L 137.500 101.500 136.955 78 C 136.363 52.489, 135.794 49.597, 130.197 43.620 C 121.928 34.789, 104.806 34.079, 89.802 41.943 L 83.751 45.115 81.613 43.106 C 74.442 36.369, 58.957 34.547, 47.500 39.093 C 39.995 42.071, 39.542 42.066, 39.519 39 C 39.501 36.641, 39.161 36.486, 33.500 36.251 C 27.795 36.014, 26.824 36.354, 13.750 43.179 M 172.780 36.990 C 165.629 38.256, 157.628 42.333, 152.046 47.554 C 136.560 62.039, 136.474 89.881, 151.872 104.284 C 160.857 112.688, 172.647 116.623, 186 115.674 C 196.099 114.956, 202.001 112.704, 208.061 107.255 C 212.663 103.118, 218.967 94.020, 218.991 91.484 C 218.999 90.570, 209.011 84, 207.614 84 C 207.299 84, 206.153 85.740, 205.068 87.866 C 201.916 94.045, 198.270 97.732, 193.515 99.548 C 184.943 102.821, 176.540 98.418, 173.888 89.264 C 172.224 83.523, 172.250 63.452, 173.928 57.247 C 175.259 52.329, 178.766 49.473, 182.366 50.377 C 184.771 50.981, 185.800 52.882, 187.865 60.542 C 189.528 66.707, 193.829 70.248, 200.228 70.722 C 211.818 71.578, 218.158 61.551, 213.087 50.384 C 209.504 42.495, 199.680 37.615, 185.500 36.681 C 181.100 36.391, 175.376 36.530, 172.780 36.990 M 232.750 43.219 L 219 50.442 219 55.160 L 219 59.879 222.750 60.190 L 226.500 60.500 226.500 81 L 226.500 101.500 222.704 102.438 L 218.908 103.375 219.204 108.438 L 219.500 113.500 242.750 113.699 L 266 113.898 266 108.528 C 266 103.349, 265.891 103.135, 262.933 102.485 C 261.246 102.115, 259.559 100.986, 259.183 99.977 C 258.807 98.968, 258.725 89.448, 259 78.821 C 259.493 59.780, 259.532 59.495, 261.727 59.183 C 263.274 58.964, 265.134 60.108, 267.822 62.933 C 271.321 66.612, 272.158 67, 276.595 66.996 C 286.482 66.989, 291.495 61.122, 290.810 50.361 C 290.475 45.101, 289.935 43.542, 287.607 41.112 C 282.245 35.515, 272.746 34.908, 264.124 39.612 C 258.607 42.623, 258.260 42.601, 258.392 39.250 C 258.497 36.570, 258.347 36.494, 252.500 36.248 C 246.784 36.007, 245.850 36.337, 232.750 43.219 M 407.081 37.588 C 400.119 39.460, 396.019 42.035, 391.096 47.628 C 382.583 57.300, 384.286 71.371, 394.883 78.917 C 399.731 82.369, 407.197 85.203, 408.365 84.035 C 410.390 82.010, 412.885 83.063, 416.915 87.641 C 422.800 94.327, 422.200 96, 413.918 96 C 409.376 96, 405.522 92.935, 406.304 89.944 C 406.891 87.702, 405.522 86.416, 401.494 85.422 C 399.847 85.016, 397.529 84.055, 396.342 83.287 C 394.477 82.080, 393.411 82.115, 388.494 83.545 C 383.543 84.984, 382.865 85.478, 383.267 87.349 C 383.521 88.532, 384.783 94.787, 386.071 101.250 L 388.412 113 392.656 113 C 395.271 113, 397.208 112.457, 397.700 111.586 C 398.371 110.400, 399.629 110.552, 405.500 112.532 C 414.652 115.619, 423.017 116.448, 430.784 115.039 C 447.523 112.004, 456.700 103.307, 457.706 89.529 C 458.238 82.244, 455.598 76.284, 449.795 71.670 C 445.388 68.165, 435.940 64.690, 434.550 66.062 C 432.769 67.820, 430.147 67.004, 426.488 63.553 C 421.886 59.213, 422.163 56.867, 427.407 55.778 C 432.239 54.774, 436 56.833, 436 60.485 C 436 62.507, 436.725 63.118, 440.250 64.066 C 442.587 64.695, 445.797 65.880, 447.383 66.699 C 450.087 68.097, 450.408 68.044, 452.561 65.844 L 454.856 63.500 452.285 50.750 L 449.714 38 445.892 38 C 443.052 38, 441.786 38.531, 440.964 40.068 C 439.951 41.961, 439.665 42.011, 437.601 40.658 C 430.850 36.235, 417.217 34.863, 407.081 37.588 M 494.780 36.973 C 482.429 39.204, 470.350 48.372, 465.489 59.205 C 461.534 68.016, 460.928 79.992, 463.981 88.991 C 468.006 100.854, 475.284 108.211, 487.895 113.167 C 492.487 114.972, 495.579 115.378, 505 115.413 C 515.526 115.452, 517.018 115.219, 522.610 112.654 C 526.134 111.038, 530.628 107.873, 533.228 105.176 C 538.001 100.223, 543 93.229, 543 91.501 C 543 90.933, 540.443 88.938, 537.318 87.069 L 531.637 83.671 530.068 86.007 C 525.851 92.289, 518.373 98.828, 514.091 99.978 C 501.977 103.233, 494 94.884, 494 78.951 L 494 75 517.500 75 L 541 75 541 70.589 C 541 64.820, 537.845 54.827, 534.499 49.999 C 527.536 39.951, 510.045 34.215, 494.780 36.973 M 498.555 52.250 C 497.148 53.487, 495.717 55.962, 495.374 57.750 L 494.750 61 503.006 61 L 511.262 61 510.661 57.250 C 509.573 50.454, 503.463 47.930, 498.555 52.250 M 328.763 53.565 C 323.940 56.182, 322.606 60.232, 322.186 73.533 C 321.778 86.448, 322.740 92.129, 326.047 96.332 C 328.763 99.785, 334.147 100.777, 338.611 98.648 L 342 97.032 342 75.965 L 342 54.898 338.532 53.449 C 334.226 51.650, 332.250 51.673, 328.763 53.565"/></svg>